<?xml version="1.0" standalone="no"?>
<!DOCTYPE svg PUBLIC "-//W3C//DTD SVG 20010904//EN"
 "http://www.w3.org/TR/2001/REC-SVG-20010904/DTD/svg10.dtd">
<svg version="1.0" xmlns="http://www.w3.org/2000/svg"
 width="1007.000000pt" height="1280.000000pt" viewBox="0 0 1007.000000 1280.000000"
 preserveAspectRatio="xMidYMid meet">
<metadata>
Created by potrace 1.15, written by Peter Selinger 2001-2017
</metadata>
<g transform="translate(0.000000,1280.000000) scale(0.100000,-0.100000)"
fill="#ffffff" stroke="none">
<path d="M1270 12789 c-241 -31 -492 -132 -681 -274 -108 -81 -259 -238 -327
-340 -326 -488 -347 -1142 -55 -1685 248 -461 672 -784 1173 -891 142 -31 459
-34 590 -6 521 111 923 467 1089 965 61 182 75 275 75 502 0 219 -9 293 -61
475 -189 659 -750 1156 -1413 1250 -113 16 -285 18 -390 4z"/>
<path d="M6228 12590 c-339 -97 -540 -348 -605 -754 -19 -122 -13 -366 11
-465 40 -157 110 -282 218 -388 81 -80 105 -97 182 -138 204 -106 450 -78 681
78 241 164 378 501 362 891 -9 205 -45 332 -134 468 -102 156 -254 272 -410
312 -83 22 -221 20 -305 -4z"/>
<path d="M4342 12589 c-41 -5 -112 -22 -158 -38 -257 -88 -451 -296 -516 -554
-17 -71 -19 -102 -15 -237 8 -203 37 -319 128 -505 110 -224 271 -380 459
-446 56 -20 85 -23 210 -23 130 0 155 3 235 28 216 66 384 204 485 398 61 117
82 209 83 358 1 316 -125 627 -338 836 -87 86 -203 153 -295 173 -73 15 -199
20 -278 10z"/>
<path d="M7945 11855 c-346 -72 -665 -503 -665 -900 0 -116 15 -181 66 -283
39 -79 137 -193 211 -244 245 -168 574 -178 808 -22 121 80 261 246 339 402
76 151 117 354 97 483 -24 152 -78 256 -193 371 -61 61 -96 86 -170 122 -51
25 -120 53 -153 61 -87 23 -255 28 -340 10z"/>
<path d="M9373 10640 c-287 -75 -527 -336 -594 -645 -18 -85 -16 -246 5 -325
25 -93 80 -192 142 -255 301 -305 846 -138 1063 327 62 131 75 193 75 343 -1
113 -4 139 -26 202 -35 99 -71 158 -138 224 -130 131 -332 180 -527 129z"/>
<path d="M5285 10524 c-598 -45 -1064 -162 -1502 -375 -442 -216 -796 -584
-1047 -1089 -299 -603 -387 -1270 -245 -1850 110 -445 374 -792 741 -973 165
-82 315 -123 553 -152 556 -67 1033 -232 1390 -480 294 -205 504 -475 603
-775 86 -260 102 -624 37 -872 -78 -304 -206 -557 -736 -1463 -214 -367 -387
-724 -465 -964 -88 -271 -87 -566 5 -796 154 -382 515 -629 1043 -712 155 -24
541 -24 718 0 278 39 530 93 685 147 722 255 1353 1050 1840 2319 319 832 561
1884 659 2871 35 347 41 468 41 870 0 445 -5 517 -56 845 -131 843 -319 1409
-614 1855 -114 171 -197 273 -345 420 -312 313 -696 560 -1245 803 -455 201
-817 299 -1296 352 -136 15 -646 28 -764 19z"/>
</g>
</svg>
